<svg xmlns="http://www.w3.org/2000/svg" xmlns:svg="http://www.w3.org/2000/svg" id="svg3" width="51" height="51" fill="none" version="1.1" viewBox="0 0 51 51"><g id="g3" clip-path="url(#clip0_19_13)" transform="matrix(0.21537223,0,0,0.20523314,6.2187264,6.6601705)"><path id="path1" stroke="#000" stroke-linecap="round" stroke-width="12" d="M 18,84.8528 85.8822,16.9706 c 9.3726,-9.37262 24.5688,-9.37262 33.9408,0 v 0 c 9.373,9.3725 9.373,24.5685 0,33.9411 L 68.5581,102.177" style="fill:#000;stroke:#c8c8c8;stroke-opacity:1;fill-opacity:0"/><path id="path2" stroke="#000" stroke-linecap="round" stroke-width="12" d="M 69.2652,101.47 119.823,50.9117 c 9.373,-9.3726 24.569,-9.3726 33.942,0 l 0.353,0.3535 c 9.373,9.3726 9.373,24.5686 0,33.9411 L 92.7248,146.6 c -3.1242,3.124 -3.1242,8.189 0,11.313 l 12.6062,12.607" style="fill:#000;stroke:#c8c8c8;stroke-opacity:1;fill-opacity:0"/><path id="path3" stroke="#000" stroke-linecap="round" stroke-width="12" d="M 102.853,33.9411 52.6482,84.1457 c -9.3726,9.3726 -9.3726,24.5683 0,33.9413 v 0 c 9.3726,9.372 24.5685,9.372 33.9411,0 L 136.794,67.8822" style="fill:#000;stroke:#c8c8c8;stroke-opacity:1;fill-opacity:0"/></g><defs id="defs3"><clipPath id="clip0_19_13"><rect id="rect3" width="180" height="180" x="0" y="0" fill="#fff"/></clipPath></defs></svg>